<?xml version="1.0" encoding="UTF-8" standalone="no"?>
<!DOCTYPE svg PUBLIC "-//W3C//DTD SVG 1.1//EN" "http://www.w3.org/Graphics/SVG/1.1/DTD/svg11.dtd">
<svg width="100%" height="100%" viewBox="0 0 25 25" version="1.1" xmlns="http://www.w3.org/2000/svg" xmlns:xlink="http://www.w3.org/1999/xlink" xml:space="preserve" style="fill-rule:evenodd;clip-rule:evenodd;stroke-linejoin:round;stroke-miterlimit:1.41421;">
    <g transform="matrix(1,0,0,1,-128.7,-288.8)">
        <path d="M128.7,301.2C128.7,294.4 134.3,288.8 141.1,288.8C147.9,288.8 153.5,294.4 153.5,301.2C153.5,308 147.9,313.6 141.1,313.6C134.2,313.7 128.7,308.1 128.7,301.2" style="fill:rgb(0,115,174);fill-rule:nonzero;"/>
    </g>
    <g transform="matrix(1,0,0,1,-128.7,-288.8)">
        <path d="M147,299.5L141.1,293.5L135.1,299.5L135.1,307.8L147,307.8L147,299.5Z" style="fill:white;fill-rule:nonzero;"/>
    </g>
    <g transform="matrix(1,0,0,1,-128.7,-288.8)">
        <path d="M136.4,306.5L136.4,300L141.1,295.3L145.8,300L145.8,306.5L136.4,306.5Z" style="fill:rgb(0,115,174);fill-rule:nonzero;"/>
    </g>
    <g transform="matrix(1,0,0,1,-128.7,-288.8)">
        <path d="M142.2,300.5C142.2,300.8 142,301 141.7,301L138.1,301C137.8,301 137.6,300.8 137.6,300.5C137.6,300.2 137.8,300 138.1,300L141.7,300C142,300 142.2,300.2 142.2,300.5" style="fill:rgb(214,224,69);fill-rule:nonzero;"/>
    </g>
    <g transform="matrix(1,0,0,1,-128.7,-288.8)">
        <path d="M140,302.4C139.8,302.6 139.5,302.6 139.3,302.4L137.7,300.8C137.5,300.6 137.5,300.3 137.7,300.1C137.9,299.9 138.2,299.9 138.4,300.1L140,301.7C140.2,301.9 140.2,302.2 140,302.4" style="fill:rgb(214,224,69);fill-rule:nonzero;"/>
    </g>
    <g transform="matrix(1,0,0,1,-128.7,-288.8)">
        <path d="M140,298.6C140.2,298.8 140.2,299.1 140,299.3L138.4,300.9C138.2,301.1 137.9,301.1 137.7,300.9C137.5,300.7 137.5,300.4 137.7,300.2L139.3,298.6C139.5,298.4 139.8,298.4 140,298.6" style="fill:rgb(214,224,69);fill-rule:nonzero;"/>
    </g>
    <g transform="matrix(1,0,0,1,-128.7,-288.8)">
        <path d="M140.6,303.9C140.6,303.6 140.8,303.4 141.1,303.4L144.7,303.4C145,303.4 145.2,303.6 145.2,303.9C145.2,304.2 145,304.4 144.7,304.4L141.1,304.4C140.8,304.4 140.6,304.1 140.6,303.9" style="fill:rgb(214,224,69);fill-rule:nonzero;"/>
    </g>
    <g transform="matrix(1,0,0,1,-128.7,-288.8)">
        <path d="M142.8,302C143,301.8 143.3,301.8 143.5,302L145.1,303.6C145.3,303.8 145.3,304.1 145.1,304.3C144.9,304.5 144.6,304.5 144.4,304.3L142.8,302.7C142.6,302.5 142.6,302.2 142.8,302" style="fill:rgb(214,224,69);fill-rule:nonzero;"/>
    </g>
    <g transform="matrix(1,0,0,1,-128.7,-288.8)">
        <path d="M142.8,305.8C142.6,305.6 142.6,305.3 142.8,305.1L144.4,303.5C144.6,303.3 144.9,303.3 145.1,303.5C145.3,303.7 145.3,304 145.1,304.2L143.5,305.8C143.3,306 143,306 142.8,305.8" style="fill:rgb(214,224,69);fill-rule:nonzero;"/>
    </g>
</svg>
